<?xml version="1.0" standalone="no"?>
<!DOCTYPE svg PUBLIC "-//W3C//DTD SVG 1.1//EN" "http://www.w3.org/Graphics/SVG/1.1/DTD/svg11.dtd" >
<svg xmlns="http://www.w3.org/2000/svg" xmlns:xlink="http://www.w3.org/1999/xlink" version="1.1">
<metadata></metadata>
<defs>
<font id="namco_regularregular" horiz-adv-x="1024" >
<font-face units-per-em="2048" ascent="1760" descent="-288" />
<missing-glyph horiz-adv-x="500" />
<glyph horiz-adv-x="0" />
<glyph horiz-adv-x="682" />
<glyph unicode=" " />
<glyph unicode="!" horiz-adv-x="820" d="M0 28h624v-316h-624v316zM0 186v1568h624v-1568h-624z" />
<glyph unicode="&#x22;" />
<glyph unicode="#" />
<glyph unicode="$" />
<glyph unicode="%" />
<glyph unicode="&#x26;" />
<glyph unicode="'" />
<glyph unicode="(" horiz-adv-x="3690" d="M18 708q36 -92 55 -139t56 -93t73 -82l56 18q-92 92 -120 138t-46 120l-20 166q38 92 74 166h20l92 38l-56 36q-92 -56 -130 -92v-18q-36 -92 -45 -138t-9 -84v-36zM18 762v56q36 92 55 138t56 92t37 66q-20 92 -38 128l92 112h56q92 36 138 45l138 27h56q92 38 138 47 l138 27h56q92 38 138 47l138 27h38q92 18 138 37t92 28t64 9h38q92 18 138 37t138 19q56 -92 65 -138t18 -93t19 -93t28 -92t18 -138q-92 -56 -138 -65l-92 -18l-92 -18t-93 -19t-93 -19t-92 -27t-92 -27t-92 -19t-92 -19t-84 -27q92 -18 130 -56v-18l166 -222l18 20v238 l184 20l222 -406l18 -18l20 18v368q92 38 138 38h64l166 -314v-18l130 -240h18l18 18q-18 92 -46 138t-55 92t-46 92t-37 93t-38 119l20 20h184l36 -20v-18l92 -128l112 166h202q38 -92 47 -139t45 -139l94 -36v-18l92 -278v-54l18 -20q36 92 55 139t37 121v72 q-36 94 -46 140t-19 92t-27 82v38l148 18l92 -148h18l92 148h130q36 -92 45 -138t19 -92t10 -120l-112 -222q38 -92 47 -138t27 -92t18 -66v-18q38 -92 38 -138v-64l-148 -20l-36 20v18q-38 92 -56 110q-38 -92 -74 -148h-166l-110 314h-20l-166 -18l-36 18v18l-74 186h-18 l-56 -74v-258l18 -112l-18 -74h-18l-148 -18l-36 18v20l-130 258l-18 -18v-240l-38 -38h-238l-56 38v18l-74 110h-18l-20 -166h-36l-18 -18h-184l-112 92l-54 -92h-426l-36 56h-18l-38 -56h-166l-54 36q-94 -36 -186 -36l-294 350v74l-20 18l20 56l-20 18l20 92l-166 148v18 q-38 94 -56 140t-18 100zM72 688q38 -92 66 -138t82 -100l38 18v74l-20 18l20 56l-20 18l20 36l-20 18l20 20l-20 18l20 56q-56 92 -65 138t-27 82q-56 -92 -75 -138t-19 -92v-84zM202 1076l18 -18l18 18l20 -36l-38 -56l92 -18l56 54v74l-92 56l-74 -56v-18zM276 98l74 -54 l18 18l18 -18l18 18l20 -18l54 36v350l56 20v-20l18 -18l-18 -36l18 -20l-18 -54l18 -20l-18 -18l18 -18l-18 -36l18 -20l-18 -36l18 -18l-18 -20l36 -54h20l36 -18l18 18l38 -18l56 54v370l-74 74q92 74 92 120v100l-74 74h-332l-74 -54v-684zM368 1280q18 -92 37 -139 t28 -93t9 -64v-56l36 -54h92l38 36v38q-18 92 -38 146l168 -184q92 38 128 56v36q-36 92 -46 139t-28 139v54l-36 56h-18q-94 -36 -112 -56v-18q38 -92 56 -166h-18l-166 184q-94 -18 -130 -54zM460 652v56l92 18l18 -56zM756 818l110 -148l38 38v74l36 72l-56 20 q-92 -38 -128 -56zM810 98l38 -36h406l36 36v38l-36 92l18 18q-36 92 -36 138t-10 92t-28 84v56l-27 138t-47 82h-148q-36 -92 -45 -138l-18 -92t-19 -92t-19 -92t-18 -93t-18 -93t-29 -138zM830 1316l27 -138t28 -92t19 -66v-36l72 -18q94 18 140 36t92 28t64 10l18 18v36 l-36 74h-18q-94 -36 -140 -45t-64 -9v36h38q92 18 146 56v54l-36 56h-38q-92 -18 -146 -36v18l138 27t82 47v74l-74 36q-92 -36 -138 -46t-138 -28h-18zM1014 560v36q36 92 36 112q38 -92 38 -148h-74zM1236 1464l202 -388h38l110 56v184l-18 38v-20l92 -202h74l92 56v332 l18 72l-36 38q-94 -38 -112 -56v-240v20q-54 92 -73 138t-55 82q-92 -36 -112 -54v-112l20 -128v18l-112 222h-56l-72 -38v-18zM1382 116l56 -54h240l36 36v388q-92 36 -166 56v276l-128 18l-38 -36v-684zM1844 98l36 -36h240l38 36v38l18 36l-18 38l18 36l-18 36l18 38 l-18 36l18 20l-18 36l18 38l-36 72h-130v296l-148 18l-18 -18v-720zM2176 782l184 -296v-370q92 -36 148 -36l38 36v426l166 276l-112 18l-148 -202l-146 202h-112zM2748 430q92 -36 184 -18v110l-146 20q-38 -92 -38 -112zM3080 116q92 -36 130 -36q54 92 73 138t37 84 q18 -92 37 -139t55 -83h92l38 36v74l-92 278v18l-38 130l112 220l-94 18l-110 -202q-56 92 -83 138t-47 64h-72l-20 -36l112 -222v-54q-38 -92 -47 -139t-45 -139v-18z" />
<glyph unicode=")" />
<glyph unicode="*" horiz-adv-x="1934" d="M42 1322h14l112 14l128 -156h84l42 -28v-14q28 -72 28 -107t16 -105l28 70l-14 28q14 72 28 107t14 63h14q14 70 35 106t42 71t57 70t64 63h14l170 100h14q70 28 105 35t71 7h64l28 -14l126 70l14 -28h-14l-240 -140v14l58 56l-72 14q-70 -14 -105 -28t-71 -28t-71 -36 t-70 -50t-71 -63t-50 -49v-14l-84 -170q-28 -70 -35 -106t-7 -71v-49q14 -70 21 -106t21 -71t35 -70t42 -71t57 -71t78 -77h28l128 14l98 -56v-14l14 -14q70 42 142 42q70 -14 98 -28l14 14l-14 28l198 140v16l70 182h58q14 72 28 107t35 70t49 63h56l14 72l-42 105t-35 71 t-49 71t-42 63h-14l-30 -42h-14l-14 14l100 142h28v-14l-56 -72q70 -70 98 -140h14l70 -184l14 -14v-240q58 -72 72 -107t14 -63l-86 -70q30 -72 30 -114q-72 -42 -107 -56t-49 -28q28 -72 28 -86l-42 -84h-14q-72 -28 -107 -42t-77 -14h-14l-14 14l-14 -72l21 -105l21 -105 v-86h-14l-14 -28h-14q-72 -42 -107 -49l-70 -14t-49 -21h-312l-98 28v14l-42 28v28l-128 14l-126 -14q-44 70 -44 142q44 70 72 112h14l42 28l14 -14l28 42h42l30 16l42 -16l14 30l-28 56l14 14l-14 28q70 42 126 56q-28 72 -56 100h-14l-114 84v14l-168 254 q-72 -42 -107 -63t-63 -21l-56 28v14l-28 42h-44l-42 28v14l-84 212l42 114q-56 70 -63 106t-7 50zM268 798l42 -56h28l170 98v16l-28 56q-72 -42 -107 -57t-77 -29zM494 -78h70v30l14 14l-56 14zM522 -6l56 -14l28 28v14l100 56v28l-58 14l-126 -98v-28zM592 940v170l14 28 h14l100 -128h14q70 -56 105 -70t79 -28l14 -14h240q70 28 105 35t71 21t64 28h14l112 70v14h14l44 -56h-16l-254 -324h-14l-184 -114l-105 -21t-63 -7h-14q-72 28 -107 42t-70 43t-49 43v14l-114 212v28zM748 1152l42 56h28l28 14l28 -14l28 56h44l56 -42l14 28l-70 86 l98 112h14q70 56 114 56l14 -56l-212 -296q56 -70 56 -86l-198 128l-56 -42v-42l198 -128h-28q-72 28 -107 49t-77 51v14zM804 -148h70v14l14 28l-42 28zM804 178l56 -16v30l-42 14zM804 474l42 -28l56 14l86 -72l28 30v14q-70 42 -106 56t-78 14zM846 -48v-30l42 -14 q72 58 142 100v14l-42 28q-70 -28 -142 -98zM860 346l42 -56h30l28 28v14q-28 72 -58 100h-28zM1002 388h42l-28 16zM1044 332h28l-14 14zM1044 418l42 -30v16l86 14l70 -58l28 58q-70 28 -106 35t-50 7zM1044 1138l254 126l86 44v-30h-14l-212 -98v-14l140 -14l-14 -14 h-156l-70 -14zM1072 134l56 -14v42l-42 30zM1100 360q28 -70 58 -98l56 14v14l-42 98h-58zM1128 1236v14l354 268l-128 72l-70 -100l-14 28l84 128h30v-28l126 -84l128 84l14 -28h-14zM1228 318h112q-70 28 -98 28zM1624 798l98 -42v28q-42 72 -42 128l28 42h28l28 -14 l14 84l-56 28q-56 -70 -70 -105t-21 -71t-7 -78zM1694 856l56 -72h14l14 -14l-42 -56l56 -42l72 70l-142 184z" />
<glyph unicode="+" horiz-adv-x="4238" d="M34 -164h214v552l18 18h374q90 -36 134 -63t80 -45q18 90 88 160h108q88 54 106 72v36l-214 124v18q-52 90 -61 134t-27 62h-18v54l18 106l-18 36l54 124l-18 36l70 90q-88 18 -133 27t-79 43q88 0 133 18t89 54t89 45t89 26t89 26t89 27t89 18h63v-18l-36 -70h-18 l-106 -54v-18l-90 -54q90 -34 106 -52l36 18l18 -18l36 52l18 -70h-36q-88 -18 -133 -45t-63 -45l-36 54q-52 -90 -61 -134t-9 -98l18 -36l-18 -18l70 -88h18q90 -54 108 -54q88 90 106 134t36 98v106l-18 36l160 268l18 36v-126q-36 -88 -36 -124l18 -18l142 232v-72 l-18 -106l36 -18l142 160h18l268 196v-18l-178 -232l54 -18l266 108l-160 -142l18 -18h178l18 18l18 -18q88 18 133 26t133 62l-178 -160q90 -36 134 -36h80q90 18 142 36v-18l-88 -54v-18l70 -34h196l90 34q-90 -52 -142 -88l70 -18q90 18 134 27t62 9h-18 q-88 -36 -133 -54t-133 -36h-18q-90 -18 -134 -26t-98 -26h-36q-88 -36 -124 -72q90 -18 134 -27t89 -27t97 -36l90 18l142 -18l90 36l16 -18l108 90v18l36 54h18q52 88 61 133t9 133l-52 72h-18q-90 52 -134 79t-89 36t-89 18t-89 18t-117 27v18l-124 70v18l54 -36l36 18 q88 -36 133 -53t63 -17l52 18q90 -36 142 -36l36 18q90 -36 134 -54t134 -90v-16l54 -72h16v-250q-34 -88 -61 -133t-81 -115l-88 -108h-18q-90 -70 -134 -88t-80 -18h-36q-88 -18 -133 -27t-117 -45l54 -72h18l54 -52h284q90 -54 108 -72v-18l36 -18q88 72 133 81t97 27 h356l18 -18v-552h232v-18q-88 -18 -133 -27t-90 -27t-61 -18h-3652q-88 36 -133 54t-81 18v18zM266 -164h392l106 70v18q54 90 63 134t9 80q-18 90 -45 134t-61 80h-18l-90 36l-106 -54v-36l-18 -18l36 -52h52l54 -36v-18l36 -54l-90 -106l36 -18l-88 -54v36l-18 18l-72 -54 v-18h-18l18 18l-54 36v18l18 36l-18 18l36 18l-18 34l54 36v90l18 36l-18 16l-36 -16v52l-36 18v18l18 18l-124 18l-18 -18v-534zM408 102l54 -18v18l-36 18zM408 370h36l-18 18zM426 32h36v18l-18 18zM462 298h36v18l-18 18zM480 50h36l-18 18zM480 370h36l-18 18zM534 -22 h34l-16 18zM746 -128h36l-18 18zM800 -146h72v36l-18 16zM836 32h36v52l-18 18zM872 -94l196 -52v160h18l88 -108l18 54l54 -18l36 18l18 -18l16 18l54 -36l18 18l-72 90h36q72 88 81 133t9 133l-54 72h-18l-54 -90l-34 72h-18l-18 -54l-36 54l-36 -36l-36 54h-18l-34 -54 l-54 72l-36 -54l-36 54h-18l-34 -18l-18 18l-18 -36l18 -54l-18 -70l36 -72l-18 -72l36 -16v-72zM1068 264h178v-18l18 -54l-18 -36h-18l-142 -18zM1086 -110h34l-16 16zM1120 -94h36l-18 18zM1120 -146h36v18l-18 18zM1120 174h36l-18 18zM1120 210h36l-18 18zM1192 -110 l54 -54l214 18l-72 88l-124 -36v-16l-54 16zM1228 -76h36l-18 18zM1300 494h52v18l-18 18zM1388 744l72 -36l70 18v-54l54 -106l36 18v70l-18 90h54l52 36q-88 18 -124 36l-72 -36v18l-34 18l-18 -36h-18zM1478 -58h34l-18 18zM1478 -146h52l-36 18zM1494 120l36 -88h18 l90 -36l-18 18l54 18l-18 18l34 52v178l-52 36v18l18 36l-72 18l-90 -54v-214zM1530 -76h36l-18 18zM1548 458q90 -52 134 -70t62 -36v-18l18 -18v-214l54 -70h52v374h196v-18l54 -160v36q72 88 108 178h34q90 16 144 52v54l-90 18q-88 -36 -133 -36t-89 -9t-62 -9h-36 l-18 -18h-392zM1566 -110q90 -54 124 -54l72 88l-18 36l18 18l-72 36l-16 -36l-18 18l-18 -36l18 -36l-54 36zM1620 1064l70 -36l54 18l18 -18l-18 -88l54 -72v36q18 90 36 160h18l52 36l-52 72l-36 -54h-18q-90 -18 -178 -54zM1656 370h34l-16 18zM1674 50h52l-36 18z M1690 798h36l-18 18zM1708 -146h54l-36 18zM1708 316h36l-18 18zM1708 638q90 -36 108 -36q70 88 70 106l-34 54h-18l-18 -18l18 -54l-18 -36h-36l-36 72l18 36l-18 18q-36 -90 -36 -142zM1726 14h36l-18 18zM1744 50h36l-18 18zM1744 -110l108 -36l-36 52h-18l-18 18z M1744 780h36l-18 18zM1798 -58l18 -18l36 36l-36 18zM1834 -4l34 -36l-16 -36l16 -34l-16 -18q88 -36 133 -36t79 18v516l-124 18l-72 -72v-302h-16zM1852 780l106 -142v142v-18l36 -124h18q36 88 36 133v61l-18 18l-18 -70l-54 88l-36 -106l-54 142zM1868 976l72 -72v18 l18 72h36v-72l18 -18q36 90 70 124q-52 90 -70 108q-36 -90 -54 -108h-18v18l18 36l-36 18zM2048 868q34 -88 34 -142l-18 -54l18 -18q90 36 144 54l-108 36l108 36l-90 18v34h18l18 -16l54 52l-72 18l-36 -18l-36 36zM2064 958h196l-124 18v18l72 34l-72 18l72 18v72 l-18 18l-54 -72l-36 18zM2118 120v-266l18 -18l302 18v36l-106 16l-18 -16l178 16l18 -34l-18 -18l36 -18l18 36h36l18 18l-18 34h18l16 -52l36 34l18 -34l18 18v408l-36 72h-18l-70 -90l-36 72l-36 -54l-54 36v36l-70 18l-90 -72v18l-18 18l-34 -54l16 -18l-70 -34v-54 l18 -18l-18 -54h-18l-18 18zM2118 156l18 -18l36 36l-36 36zM2242 690l54 -36v108h18q18 -90 54 -124h18l18 16l-36 108h18l52 36v18l-70 88h-108l-18 -18l18 -160zM2296 868h18l54 -36l-18 -34h-36zM2314 68h18h106v106l-70 18l-36 -36v54q88 36 160 36l18 -178l-178 -18z M2456 -110h36l-18 16zM2456 192h36l-18 18zM2474 708l72 -88h36l88 124l-70 88l-18 -34l34 -72l-16 -36h-36l-36 90l72 52l-36 36q-72 -88 -90 -160zM2528 352h36l-18 18zM2564 476l36 -18l34 36v18l-34 18v18l-18 18zM2670 744q36 -90 90 -142v70l-18 54l70 -18l36 36 l-70 36l-36 -18l-18 36h36l52 -18l36 36q-88 34 -106 34l-36 -18l-18 18zM2706 -94h36v54l-18 18zM2706 334l18 -18l88 72l-52 18l-54 -36v-36zM2742 -58l52 -88h18l18 18l54 -36l446 18v248l-126 18l-142 -36v-16l72 -36v-18q-90 -36 -160 -36l-18 36v-18l70 -18l18 36 l-70 36v52l70 54l-88 36v18l-54 36v18l-18 16l-18 -16l-36 34l-36 -124h-16l-18 54l-18 -18v-268zM2742 -146h36l-18 18zM2742 264h52v16l-34 18zM2830 370l36 -72h36l54 -34l18 70h16l18 -54l-18 -16q90 -36 126 -54l52 54l-16 16l34 36l36 -52l72 34v54l-54 36h-392z M2990 68h36l-18 16zM3044 120h54l-36 18zM3116 210q88 -36 124 -18l-36 54h-18zM3258 192h54l-36 18zM3276 264h54l-36 16zM3330 192h34v36l-16 18zM3364 174l286 -320v36l-90 16v54l18 54l-18 36h72l18 124l-54 18l-18 -36v18l18 36h18l142 18v-160q-88 -18 -178 -72 l18 -18l-18 -18q90 -54 178 -54v-52l90 -18l18 18l-54 70h18l18 18l-54 36l72 18l36 -36q34 90 34 178l-18 18l-52 -18l-18 18l54 36l-54 36l-18 -36h-18l36 54l-54 34l-18 -16l-18 16l72 18v18l18 18l18 -18l-18 -18l36 -34l52 34v90h-392q-88 -54 -124 -72v-18l36 -52h18 l-54 -36l-18 18zM3364 298h36l-18 18zM3650 84h36l-18 18zM3650 -110h36l-18 16zM3650 174h36l-18 18zM3846 246h36l-18 18zM3864 -146h36l-18 18zM3882 -58h34l-16 18zM3882 -110h52v16l-18 18zM3900 210h34v36l-18 18z" />
<glyph unicode="," />
<glyph unicode="-" horiz-adv-x="6022" d="M-40 160l940 920l-460 480l240 160h5160l160 -160l-380 -320l380 -440l-480 -460h-1600l-146 -106h-1246l-120 120h-1886l-382 -374zM642 474l838 6l-396 436zM740 1620l344 -384l336 384h-680zM1244 1076l476 -476l-160 -120h520l-514 556l482 522l-82 80h-400l114 -98z M1900 980l348 -426l-88 -74h360l160 -140h920l220 140h140l-500 440v-420h-240v940l-340 -940h-240l-160 480h-580zM1966 1156l454 4l-140 400l140 60h-340l160 -140zM2500 1600l260 -860l220 860h-480zM3040 1600l180 -40v40h-180zM3460 1060l520 560h-520v-560zM3774 1036 l246 -236l236 236l-256 244zM4020 1620l480 -540v480h220v-600l220 -200l180 200v600h220v-280l360 340h-1680zM4060 480h820l-400 380zM5020 480h300l360 320l-340 400v-360z" />
<glyph unicode="." />
<glyph unicode="/" />
<glyph unicode="0" horiz-adv-x="2700" d="M0 316v842l4 4v42l6 30t4 21t6 21t6 20t6 21t8 21l8 20l8 20t11 21t13 21l12 20t12 21t14 21t14 20t17 20t19 21t18 21l18 18h4l186 120l62 20q20 8 30 10t18 2q22 4 32 6t20 2h22h4l34 8v4h1292l4 -4h40q20 -4 31 -6t21 -4l20 -4t21 -4t21 -6l20 -8l20 -8t21 -8t21 -11 t20 -13t21 -12t21 -12l20 -12t20 -16t21 -19t21 -17l20 -16t26 -24v-4l120 -190l20 -62q10 -20 12 -30t2 -20l6 -30t2 -20v-14v-10l4 -4v-850l-4 -4v-42l-6 -30t-4 -21t-5 -21t-5 -20t-6 -21t-8 -21l-8 -20l-8 -20t-8 -21t-10 -21l-12 -20t-15 -21t-15 -21t-14 -20l-16 -20 t-17 -21t-19 -21l-30 -30h-4l-190 -124l-62 -20q-20 -8 -30 -10t-18 -2q-22 -4 -32 -6t-20 -2h-22h-4l-4 -4h-1312l-4 4h-42q-20 4 -31 6t-21 4l-20 4t-20 6t-21 8t-21 8l-20 8l-20 8t-21 11t-21 11t-20 10t-21 12t-21 14l-20 16t-20 19t-21 21t-21 20l-22 22v4l-120 182 l-24 74q-8 20 -10 31t-2 19l-6 30t-2 20v24v4zM624 340l4 -4l1250 4v782h-1254v-782zM932 496v474h638v-474h-638z" />
<glyph unicode="1" horiz-adv-x="1460" d="M0 1122v634h654l4 -4h36l27 -6t23 -6h12q18 -6 27 -8t23 -6h8l124 -58h4l174 -150v-2l90 -154l22 -62q8 -18 10 -27t6 -23v-12q2 -18 4 -27t6 -23v-32l4 -4v-1440h-634v1410h-624z" />
<glyph unicode="2" horiz-adv-x="2700" d="M0 -288v800q6 30 9 46l9 48l44 82v6l70 82h6l264 158h6q32 12 48 15l48 9h30q32 8 48 8t32 3t31 3h31h32h32h31h31h32h32h31h31h32h32h31h31h32h32h31h31h32h32h31h31h32h32h31h31h32h32h31h31h32h32h31h31h32h32h31h31h32t42 6v302h-1884v472h1908q32 -6 48 -6t31 -3 t31 -6l32 -6l32 -6t31 -10t31 -13l32 -12t32 -13t31 -16t31 -22t32 -22t32 -25t31 -28t41 -38v-6l70 -114q18 -32 21 -47t3 -31t8 -30v-346q-8 -32 -11 -47t-6 -31t-9 -32t-16 -32t-19 -31t-22 -31t-25 -32t-38 -40h-6l-170 -114l-82 -32q-32 -12 -48 -15t-46 -11h-32 q-32 -6 -48 -6t-31 -3t-31 -3h-32h-32h-31h-31h-32h-32h-31h-31h-32h-32h-31h-31h-32h-32h-31h-31h-32h-32h-31h-31h-32h-32h-32h-31h-31h-32h-32h-31h-31h-32h-32h-31h-31h-32h-32h-31h-31h-32t-40 -6v-302h1878v-472h-2508z" />
<glyph unicode="3" horiz-adv-x="2700" d="M0 186h1882v310h-1258v474h1258v310h-1882v474h1908l6 -6h58q28 -4 41 -7l26 -6t27 -5t27 -8t26 -8t27 -10t27 -14t26 -11t27 -13t27 -16l26 -16t27 -19t27 -21t26 -24t41 -34v-6l96 -166v-16q4 -26 7 -39t3 -27v-30v-314q-6 -26 -8 -40t-5 -27t-11 -26t-13 -27t-13 -27 t-19 -26t-21 -29l74 -140v-4q10 -28 10 -41t6 -29v-358q-6 -26 -8 -39t-5 -27t-8 -27t-11 -26t-14 -27t-18 -27t-18 -26t-19 -27t-27 -30h-6l-202 -132l-64 -28q-26 -10 -40 -13t-34 -7h-12l-39 -9t-27 -3h-30h-10l-6 -4h-1908v474z" />
<glyph unicode="4" horiz-adv-x="2700" d="M0 938v816h622v-784h1250v784h624v-2042h-624v626h-1278q-24 6 -36 6t-24 2t-23 4t-23 5t-24 7t-24 7t-24 8t-23 9t-23 11t-24 12t-24 12l-24 14t-23 17t-23 21t-24 21t-24 19t-36 33v4l-132 214q-8 22 -11 34t-7 32q-4 22 -7 34t-7 32v38z" />
<glyph unicode="5" horiz-adv-x="2700" d="M0 188h1886v308h-1282l-4 4h-58q-22 6 -34 8t-24 5t-24 5t-24 7t-23 7t-23 7t-24 9t-24 9l-24 10t-24 12t-23 14t-23 14l-24 14l-24 14t-24 17t-24 22t-23 21t-35 33v4l-72 118q-8 24 -11 36t-3 22q-4 24 -6 35t-2 23v18v770h2510v-478h-1886v-306h1290l6 -6h56 q24 -4 36 -7t24 -5t23 -4t23 -7t24 -7t24 -7l24 -10t23 -12t23 -12t24 -9t24 -11t24 -15t24 -15t23 -16t23 -21t24 -21t24 -21l22 -22v-4l74 -124v-4q10 -24 13 -36t7 -26v-28l4 -4v-350l-6 -36t-5 -24t-8 -24t-9 -24t-9 -23t-12 -23t-17 -24t-19 -24l-18 -24t-21 -24 t-22 -20h-4l-172 -114l-80 -34q-24 -8 -35 -11t-31 -7h-10q-22 -10 -34 -10t-26 -4h-52l-6 -4h-1914v476z" />
<glyph unicode="6" horiz-adv-x="2700" d="M0 308v1446h626v-474h1278q24 -4 37 -4t25 -3t24 -5t25 -5t25 -8l24 -10t25 -10t25 -9t24 -9t25 -13t25 -15t24 -15t25 -17t25 -19t24 -23t25 -23t23 -18v-6l128 -198q10 -24 12 -36t7 -25t5 -17v-10q6 -24 8 -37t8 -27v-34l4 -6v-370q-4 -24 -4 -37t-3 -25t-5 -24 t-5 -25t-8 -25t-7 -24t-7 -25t-10 -25t-13 -24t-15 -25t-14 -25t-15 -24t-18 -25t-20 -25t-19 -24t-22 -25l-17 -17h-6l-202 -128q-24 -10 -36 -13t-25 -8t-17 -5h-10q-26 -4 -38 -7t-26 -7h-36l-4 -4h-1308q-24 4 -37 4t-25 2t-24 5t-25 5t-25 7t-24 8t-25 10t-25 12 l-24 10t-25 12t-25 15t-24 15t-25 17t-25 20t-24 22t-25 22t-17 16v4l-124 188l-30 88v10q-4 26 -7 38t-7 26v36zM626 342l4 -4l1244 4v312h-1248v-312z" />
<glyph unicode="7" horiz-adv-x="2700" d="M0 652v1102h1916q26 -6 38 -8t25 -2t25 -3t25 -8t26 -7t25 -7t25 -10t25 -10t25 -13t25 -15t25 -15t26 -18t25 -20t25 -20t25 -20t28 -26v-4l126 -192l20 -60q10 -26 12 -38t8 -38v-20q4 -24 7 -37t3 -26v-25v-25v-25v-25v-25v-25v-26v-25v-25v-25v-25v-25v-25v-26v-25 v-25v-25v-25v-26v-25v-25v-25v-25v-25v-25v-26v-25v-25v-25v-25v-25v-25v-26v-25v-25v-25v-25v-26v-25v-25v-25v-25v-25v-25v-26v-25v-25v-25v-25v-26v-25v-25v-25v-25v-25v-25v-17h-624v1408h-1252v-468h-634z" />
<glyph unicode="8" horiz-adv-x="2700" d="M0 186v16v322l6 36t5 23t7 23t9 24t12 23t14 23l14 24t25 36l-70 116q-8 24 -11 35t-7 35v14l-4 4v356q4 24 6 35t5 23t5 24t7 23t12 23t11 24t11 24t17 23t19 23t21 24l16 16h4l188 126l94 38q22 8 34 11t30 7h10q24 4 35 7t23 3h24t30 4h1304l6 -4h56q22 -6 34 -8 l24 -4t24 -5t23 -5t23 -7t24 -7t23 -9t23 -12t24 -9t23 -11t23 -14l24 -14t23 -14t23 -17t24 -19t23 -21t23 -21t32 -27v-6l74 -126q10 -24 12 -35t2 -21q4 -24 7 -35t3 -23v-26v-314q-6 -22 -8 -34l-4 -24t-7 -23t-10 -23t-12 -24t-14 -23t-16 -23t-23 -30l70 -122 q10 -24 12 -36t6 -34v-14l6 -6v-360q-6 -22 -8 -34l-4 -24t-7 -23t-7 -23t-9 -24l-14 -24t-14 -23t-17 -23t-19 -24t-33 -34h-4l-206 -136l-56 -24q-24 -8 -35 -11t-35 -7h-10q-24 -10 -35 -10t-25 -4h-56l-6 -4h-1308l-6 4h-56q-22 4 -34 7t-24 5t-23 4t-23 7t-24 7t-23 7 t-23 10t-24 9t-24 9t-23 12t-23 14l-24 14t-23 14t-23 16t-24 19t-23 21t-23 21t-36 32v6l-64 108q-10 22 -12 34t-8 36q-4 22 -6 34t-2 24zM626 192h1252v304h-1252v-304zM626 974l4 -6l1248 6v304h-1252v-304z" />
<glyph unicode="9" horiz-adv-x="2700" d="M0 186h1876v308h-1324q-26 4 -38 6t-26 8h-10q-24 10 -36 12t-32 8h-10l-138 62h-4l-166 138v4l-68 122q-10 26 -13 38t-7 26v24l-4 6v352l6 36t5 24t8 25t10 25t9 24t12 24t15 25t19 25t22 24t22 24l22 22h6l156 102l102 40q24 10 37 12t31 8h10q26 4 38 7t24 3h26h10 l6 4h1310l4 -4h58q26 -6 38 -8t24 -5t24 -5t24 -7t25 -7t25 -7l24 -10l24 -10t25 -12t25 -12t24 -13t24 -15l24 -14t25 -20l25 -25l24 -24l32 -32v-4l68 -108q10 -24 12 -36t8 -38q4 -24 7 -36t3 -24v-18v-1100q-6 -24 -8 -36t-5 -24t-7 -25t-9 -25t-13 -24t-15 -24l-14 -24 t-17 -25t-22 -25t-38 -36h-4l-162 -108l-102 -38q-24 -10 -36 -13t-32 -7h-10q-24 -6 -36 -8t-72 -18l-1900 12v474zM624 972h1248l8 10v220l-4 4v74h-1252v-308z" />
<glyph unicode=":" />
<glyph unicode=";" />
<glyph unicode="&#x3c;" horiz-adv-x="3640" d="M10 188v36q24 56 29 84t5 52q24 56 29 85t17 63v22q22 58 28 86t18 62v34q22 58 28 86l18 84l10 24h1570l12 68q22 -56 34 -68h22l172 148v10l34 80q-58 46 -86 57t-57 11t-57 12t-50 34v12l-12 68q22 56 39 85t46 57t51 52h12l194 114l170 56h12q56 22 85 28t85 6h46 l46 12l10 -12l12 12q56 -12 85 -12t57 -6t57 -17t57 -17t57 -17t57 -22t56 -28t57 -35t57 -40t57 -45t57 -51l86 -86v-12l124 -204l68 -148h24q56 -34 80 -56v-24l10 -56l-22 -80l12 -12q-24 -56 -29 -85t-28 -57t-23 -57t-6 -57l-12 -56t-17 -57t-23 -75l58 -10v-68 l-12 -12l12 -12l-24 -56h-114l-44 -68v22l10 34l-10 12h-182l-126 -206v12q24 56 29 85t17 75v22l-102 12l-46 -138l-170 -226h-12l-160 -92l126 160l-12 12l-216 -126q-56 -22 -85 -28t-51 -6l-12 -12h-182q-56 12 -85 23t-75 23h-10l-284 216v12q-46 56 -63 85t-34 57 t-29 40l-12 10h-1570zM34 212l10 -12h114q24 58 35 86t23 84h56l12 -56q-24 -56 -34 -102l90 -12l34 12h24v250l10 12v364l12 56l-12 12h-182q-34 -58 -39 -86t-11 -56t-12 -57t-17 -57t-17 -57t-12 -57t-17 -57t-17 -57t-11 -57t-11 -57t-17 -56t-11 -40zM240 480l44 142 v-126zM408 246l46 -46h170l58 34v12q34 56 40 85t6 57t5 57t5 39l-10 12h-126l-12 -12l12 -22q-12 -56 -17 -85t-5 -75h-24v80q12 58 18 86t16 62v68q12 58 18 86t16 74v34h24v-22q-12 -58 -18 -86t-6 -40l12 -12h114q22 58 28 86t12 57t6 51l-34 56h-12l-46 24h-124 q-58 -34 -68 -46v-12q-24 -56 -30 -84t-11 -57t-5 -57t-6 -57t-12 -57t-6 -57t-5 -57t-11 -57t-12 -57t-6 -62zM716 212l12 -12l238 12v46l12 44l-102 12v12q10 56 16 85t18 73v24h90q12 56 24 102l-104 12v10q12 58 18 86t16 62v12l104 12v56l10 22q-56 24 -85 24h-39 l-126 -24v-56q-12 -56 -17 -85t-5 -57t-6 -57t-12 -57t-16 -62v-114q-24 -58 -24 -86t-5 -56t-17 -40zM1046 234l46 -34h182l68 58v10q10 58 16 86t6 52v22l12 56l-12 12h-114q-22 -56 -28 -85t-6 -57v-52h-22v68q12 58 17 86t17 62v70q12 56 17 84t17 74v46h12l10 -22 q-10 -58 -16 -86t-18 -52l92 -10l68 22v80q12 56 22 90l-56 80h-194q-46 -56 -51 -85t-11 -57t-12 -57t-11 -57t-17 -86v-112q-22 -58 -22 -86t-6 -57t-6 -63zM1364 246q58 -46 86 -52t57 -6h51q56 24 102 58v12q22 56 22 84t6 57t12 57t12 57t11 57t5 57t6 57t12 57t6 57 v40l-34 44h-12l-12 12h-182l-46 -34v-22q-22 -58 -22 -86t-6 -57t-11 -57t-11 -57t-18 -73v-114q-22 -58 -22 -86t-12 -62zM1512 302v24q12 56 18 85t6 51q10 56 16 85t18 85v46q10 58 22 114h12v-68q-12 -58 -18 -86t-6 -74v-12q-10 -56 -16 -84t-18 -74v-46l-10 -46h-24z M1614 166q34 -56 51 -85t41 -63l124 -136h12l148 -92q58 -34 86 -39t50 -5h12q56 -12 85 -18t63 -6q56 12 85 18t57 11t57 17t57 23t57 28t57 40t62 45v12l114 194l22 56l-22 12q-22 -58 -34 -86t-29 -57t-34 -57t-73 -84h-12l-136 -80l-160 -46l-12 -12h-148q-56 12 -84 23 t-57 17t-57 23t-57 28t-57 34t-57 52l-73 73v12l-24 12v10l-46 70l252 -182q56 -24 85 -35t63 -11h192q58 22 102 46l-34 10q-56 -22 -84 -28t-57 -6h-51q-58 12 -86 18t-57 11t-57 17t-57 29t-57 34t-56 45t-52 40v12l-90 102h-12zM1672 200l90 -12l58 24v12q10 56 16 84 t18 74v46l10 12v136v-80l12 -12v-272l-12 -12l92 -12q34 58 45 86t17 57t18 57t17 57t17 57t12 50v-90q-24 -56 -24 -85t-5 -57t-5 -40l-24 -80l12 -12l136 12v46q12 56 17 85t5 57t12 52v44q12 58 18 86t6 74v12q10 56 16 85t6 73l12 24l-46 22l-80 -22v-12l-46 -22l58 -12 v-12q-58 -22 -114 -80v-10l-12 -80l12 -34h-80q-56 34 -85 51t-57 40t-52 45l-10 -22l10 -24q-10 -56 -16 -85t-18 -73v-34q-10 -58 -10 -86t-6 -57t-12 -57t-28 -74zM1786 166l124 -148h12l160 -80h56l-182 92h-12l-80 68v12l-56 68h-12zM1786 826q10 -56 44 -114h-10 l-12 -12l68 -56v-12q58 -22 92 -44l10 10h34l-10 102l46 46l-36 12l-56 -46v-12l12 -10l10 10v-10l-10 -68h-12l-56 22l10 12l-56 44l34 -10l12 10l-58 46l58 -22l10 12l-22 10v24l-12 10l-12 -22q-44 56 -50 85t-18 39zM1786 1282l34 -46h10q58 -12 86 -18t57 -23t63 -39 v-34l12 -12l10 12l34 -46v34q-34 58 -68 102h-12q-56 36 -84 41t-57 11t-51 18v44l-12 12zM1808 1360h22v12l12 22l-12 12zM1830 212l12 -12l22 24v10l-22 12zM1830 1406l12 -12l92 104h10l12 22h22l138 80l158 56q58 24 86 29t86 5l10 12h194q56 -12 85 -17t57 -17t57 -17 t57 -17t57 -29t57 -34t57 -34t57 -40t84 -67v-12l182 -262q36 -56 47 -85t33 -63l12 12v34l-114 216v12l-124 158h-12l-34 46h-12l-296 182l-158 46h-12q-58 10 -86 16t-74 6h-114q-56 -12 -85 -17t-73 -17h-24l-158 -68h-24l-192 -126v-10zM1864 814l46 -34v24l12 22 l-12 12l-10 -12v22q34 58 56 80h12q56 58 68 86t12 50v24l-12 12l-58 -104h-10l-68 -44v-12l-36 -34l12 -12l24 12q-36 -58 -36 -92zM1876 166l182 -102h12l56 -24h114q58 12 86 24t57 23t57 22t62 35l-34 10q-56 -22 -85 -33t-57 -23t-57 -17t-57 -5h-74q-56 10 -85 22 t-57 29t-57 34t-51 27zM1900 666h22l-12 12zM1922 848l12 -10l22 22v12l102 90v12l-10 12l-114 -104v-10zM1978 758h24v12l-12 10zM1990 224h22v10l-10 12zM1990 780l12 -10l136 78l136 34l-10 12h-114q-58 -22 -114 -56v-12l-46 -34v-12zM2048 166l146 -56h24h68 q-56 22 -85 28t-57 17t-86 23zM2058 996h24v12l-12 12zM2070 1020h22l-10 10zM2150 -72h80l-70 10zM2184 200l10 -12h206q56 24 102 70v44q12 58 17 86t17 74v56l-46 34l58 46v12q12 56 17 85t17 75v68l-58 56h-226q-12 -56 -18 -85t-11 -57t-5 -57v-51v-12q-12 -56 -18 -85 t-16 -73v-46q-12 -58 -18 -86t-6 -56t-22 -86zM2354 302v80q12 58 22 114h12l12 -46q-12 -56 -18 -85t-16 -63h-12zM2388 622q12 56 18 85t16 73l12 -68q-12 -56 -17 -85t-17 -29zM2490 154h24l-12 12zM2490 200l12 -12l136 12v12q24 56 29 85t17 51l-12 12h46v-172h148v400 l12 10v262l10 22l-10 12h-194q-22 -56 -28 -85t-17 -57t-11 -57t-12 -57t-17 -57t-11 -57t-17 -56t-17 -57t-12 -57t-17 -57t-17 -57t-18 -40zM2662 918h34l-12 34q58 34 114 34l136 -80l12 12l-148 90l-56 12q-58 -34 -80 -58v-44zM2662 1282q56 -34 85 -46t57 -29t62 -39 h12l170 -160v-12l92 -90v22l-148 194h-12l-262 160l-46 10zM2706 -198l24 -12l90 80v12l138 228v22l10 34l-22 12q-22 -58 -34 -86t-24 -74l-112 -148h-12zM2706 496q24 56 24 114l-12 -148zM2718 -106l12 -12l34 34v12l-12 10zM2776 -96h22l-12 12zM2786 -72h24l-12 10z M2810 -28h22v12l-12 12zM2820 -4h24v10l-12 12zM2832 30h22v10l-10 12zM2844 64h22l-12 12zM2854 144h24v10l-12 12zM2878 200l10 -12l138 12v12q10 56 16 85t6 57v40q12 56 18 85t16 73v58q12 56 18 85t16 85l-10 12h34l34 -12q22 58 22 114h-250l-12 -12l-10 12 q-24 -56 -36 -102l92 -12q-12 -56 -17 -85t-5 -51q-12 -56 -12 -85t-6 -57t-11 -57t-11 -57t-12 -57t-12 -57t-16 -74zM2878 656l46 -58v46l-24 34zM2888 1430l206 -160v-12l34 -22v-12l90 -136l58 -114l22 12v22q-22 56 -39 85t-29 63l-80 102h-10l-240 182zM2912 1190h22 l-10 12zM2946 1168h22l-10 10zM3002 1384h24l-12 10zM3036 1360h24l-12 12zM3094 98h22v12l-10 10zM3106 120l10 -10l34 56l-22 46q-22 -58 -22 -92zM3106 610h22v12l-12 10zM3128 280h22v34l-10 12zM3128 416h22v46l-10 12zM3140 962l56 -44v10l-46 58zM3162 200l12 -12 l340 12v24l24 78l-12 12h-160l-22 -12v12l240 398v12q10 56 16 85t18 63v56l-46 58h-12l-12 10h-192l-80 -68v-22q-12 -58 -17 -86t-11 -56t-6 -64h148q22 58 22 86t6 57t18 39h10v-112q-22 -58 -39 -86t-34 -57t-34 -57t-29 -57t-34 -57t-40 -57t-35 -57t-22 -56t-17 -86z M3162 746q12 -56 17 -85t5 -57v-40v-170l12 -12l22 24v272q-10 58 -34 92zM3208 848h22v12l-12 12zM3276 666h22l-10 12zM3288 610h22v12l-12 10zM3288 1100l56 -92l22 12l-68 102zM3322 622l10 -12l24 22v34l-24 24zM3436 336h34v12q22 58 28 86t28 84v24l-12 10l-33 -84 t-23 -74z" />
<glyph unicode="=" horiz-adv-x="3098" d="M0 872l12 -14q42 68 49 102t13 68t20 68t28 69t27 69t27 68t35 68t34 68t34 68t34 68t13 48h14l68 42l56 -28l12 14l28 -54h28q68 -42 82 -56v-40l-28 -42q68 -40 110 -82v-12l40 -42q42 68 55 102t34 68t35 48q68 42 82 42q68 -42 102 -55t48 -27v-28l12 -40 q-12 -68 -33 -103t-48 -69l-54 -68t-69 -74l42 -14q68 26 122 68v14l136 286v14h28l68 -42v-12l28 -42q-28 -68 -48 -102t-41 -68t-35 -62l124 -68v-14q-68 -14 -103 -14t-89 -40v-28l-14 -14l14 -12h136q70 -42 110 -56v-26l-28 -28h-136l-96 -28v-26l382 -464h14l14 -28 l-178 150l-12 -28l68 -68l-110 110l-14 -42l178 -136l-232 178v14l-192 232l-40 -68h-14q-40 -70 -54 -104t-14 -48v14l68 206l14 54l-14 14q-40 -68 -54 -102t-28 -69t-34 -69t-27 -68t-21 -68t-14 -62v56q28 68 35 102t21 74v28l54 178l-54 14l-42 -14l-54 26v28 q68 54 102 68t62 14l26 28l14 -14l42 96q-68 26 -138 54l-94 -82v14l12 14q-40 68 -54 82l-28 -68l-12 40h-14l-14 -68l-14 40h-14v14l56 150l-14 14l-42 -14l-94 110q-56 -68 -69 -102t-27 -62q68 -42 102 -69t76 -67v-14l-110 -14v-28l28 -54h26l42 -68l-96 -28v-26 q-14 -68 -21 -103t-7 -75l14 -14l68 82h42l14 14l54 -96q-68 -54 -102 -68t-90 -54l14 -14h136l14 -14l14 14l28 -28q-68 -14 -103 -21t-69 -13t-68 -13t-68 -21t-68 -27t-68 -34t-90 -35l-40 28v28q68 40 102 54t102 40h28l14 14l-110 82v14l-26 68l12 54l-12 14h26 l110 -54l14 14l40 -28l14 14v190q-68 14 -110 56v14l-26 12l-28 -40v14l110 178l-28 12q-54 -68 -68 -102t-54 -88l12 -28h-12l12 14l-12 28q40 68 82 136l-28 14l-96 -138q42 70 42 82l-28 14l-28 -68h-14l-54 -82v14q54 68 54 96l-26 14l-14 -28h-14l-14 14l-14 -28h-12 l-14 -14l14 -26l-56 -42v-14l14 -14zM326 926l14 -14l82 42h28v14l14 68l-56 40q-40 -68 -61 -102t-21 -48zM750 1076h28l-14 14zM1500 1062v28h28l102 21t68 13t62 20h54q70 28 110 68v28l14 14l-68 14l-110 -28l-14 14l-94 -14l-56 28q68 14 82 26h192l14 14l12 -14l42 28 l14 -14l26 68l-40 14l-14 -14l-122 110v14l-14 68l40 68h28l14 14l26 -14v-14l124 -136q40 68 54 102l28 68t14 48l54 42l136 -96v-14l14 -28l-14 -12l28 -14q68 40 102 68t88 68h42q40 -68 61 -102t21 -48h-14q-68 -28 -102 -41t-68 -27t-68 -21t-62 -7v28l-28 14l-40 -110 l40 -54l14 14h218q68 12 103 19t61 7q-68 -14 -102 -20t-68 -13l-68 -14t-76 -21l-14 14l-26 -42l68 -82h82l14 14h164l12 14h178l14 14h204v-14q-68 0 -102 -7t-68 -7h-62h-68q-68 -14 -102 -20t-68 -6t-90 -14h-54l-14 -14l260 -218v-14q68 -42 102 -62t62 -34l-28 -14 l28 -14l-54 -12q-70 12 -104 26t-68 35t-60 33l-14 -26l-164 108v14l-68 56l-14 -28l14 -42h-14q-68 -26 -124 -40v-14q70 -28 104 -48t68 -27t48 -7l-110 -14v-82h232q68 -12 96 -26h-42l-68 14l-14 -14h-136l-14 -14l-12 14q-28 -68 -28 -110l21 -102t7 -68t12 -102v-14 l-12 -14l12 -14l-12 -40h-14q-68 -28 -124 -28l-246 286h-12l-42 14v14l102 -21t90 -7l12 -14l14 14l14 -14l14 14v178h-164l-14 -14h-136l-14 14q68 42 110 54h204l14 68l-14 14h-178l-54 14l102 21t48 7l14 -14l28 14l12 -14l56 40q-68 28 -124 42l-68 -28h14l260 192 l14 26q-70 28 -82 28q-70 -14 -124 -40v-14h-14l-12 14l-28 -28l28 -28l-96 -150h-14l14 28l-28 14q-54 -68 -75 -103t-47 -61l-14 40l-14 -40l-14 40h14l14 28l-14 28q28 68 48 102t34 74l-14 14q-68 -14 -102 -27t-76 -13q-68 -28 -108 -28l-42 54h-14zM1814 968h42v12 q40 70 40 82l-12 14q-56 -68 -70 -108zM2116 1212l26 -26l82 26l-54 70h-14z" />
<glyph unicode="&#x3e;" />
<glyph unicode="?" horiz-adv-x="2700" d="M0 966v334q4 28 7 41t6 27t8 27t10 27t13 27t17 27t19 27t21 27t21 24h6l216 140q26 16 40 19t36 9q26 10 40 13t34 7h34l4 6h60l6 6h1314l6 -6h58q28 -6 41 -8t27 -5t27 -6t27 -8t27 -8t27 -11t27 -13t27 -11t27 -14t27 -16t27 -16t27 -19t27 -21t27 -24t40 -36v-4 l80 -136q12 -26 15 -40t3 -27t4 -25v-354q-4 -28 -7 -41t-6 -27t-8 -27t-11 -27t-14 -27t-16 -27t-19 -27t-21 -27t-22 -24h-4l-206 -134l-64 -28q-28 -10 -41 -13t-35 -9h-10q-28 -4 -41 -7t-27 -3h-30h-10l-6 -6h-344v-306h-626v328q6 26 8 40t5 27t6 27t11 27t13 27 t16 27t22 27t22 27t24 27t19 18h6l160 108l86 34q28 10 41 13t35 7h12q26 6 40 9t27 3h29h12l4 4h346v314h-1262v-314h-624zM942 28h626v-316h-626v316z" />
<glyph unicode="@" horiz-adv-x="960" d="M12 1319v6v7v52v2v14l3 12t1 7t1 8t1 8t1 6t2 8t1 8t2 7t2 8t2 7t3 7l2 8l2 8t2 7t4 7t5 8t3 7t3 8t4 8l4 6t4 8t4 8t5 7t6 7t6 7l6 8t5 7t5 7t7 8t8 7t7 8t7 8t10 9h2l100 66l40 14q6 4 11 4t9 2h2q6 2 10 3t7 1t9 2h8q6 2 9 2h7h8t8 4h48v-4h18q6 0 10 -1t8 -1t6 -2h6 q6 0 10 -2t12 -4h4l9 -3t7 -1h2l56 -26h2l106 -90l64 -102l16 -44q4 -6 4 -10t2 -8v-4q2 -8 2 -11t1 -6l3 -9v-6q0 -8 1 -12t1 -7v-7t4 -8v-50l-4 -2v-14q-2 -10 -2 -13v-7t-1 -8t-2 -7t-1 -7t-1 -8l-2 -8t-2 -7t-2 -7l-2 -8t-3 -7t-3 -7l-2 -8t-4 -7t-4 -8t-2 -8t-3 -6 t-4 -8t-4 -8t-4 -7t-4 -7t-4 -7t-6 -8t-6 -7t-4 -8t-5 -8l-6 -6t-7 -8t-7 -8t-6 -7t-7 -8l-7 -7l-7 -7t-6 -4h-2l-84 -60l-54 -20q-6 -4 -11 -4t-11 -2h-2q-6 -2 -10 -3t-8 -1h-8q-8 -2 -11 -3t-6 -1h-7h-6h-48h-2h-18l-9 3t-7 1h-8h-6q-6 2 -10 3t-7 2t-5 1h-4q-8 4 -11 4 t-7 2h-2l-68 34h-2l-88 70l-76 116l-14 42q-2 6 -3 10t-1 8v4q-2 6 -3 10t-1 8t-2 6v8q-2 6 -3 11t-1 8zM116 1320q2 -6 3 -10t1 -12v-4l3 -12t3 -8v-4l28 -62l58 -72l78 -52l28 -10q8 -4 12 -4t12 -2h4q6 -2 9 -2h8h7h2l2 -2h38q6 2 11 2h8t6 1t7 2t8 1t8 1t7 2l6 2t7 2 t8 4t8 4t7 3t6 3t8 4t8 5t7 5t7 5l6 4t8 5t8 7t7 7t7 7t11 8v4l54 82l14 40q4 8 4 12v6q2 8 3 11t1 7v10h2v16l2 2v40l-2 4v12q-2 8 -2 12t-2 12v4q-2 8 -3 11l-3 9v2l-24 58l-58 74l-78 54l-30 10q-6 4 -10 4t-10 2h-6q-6 2 -10 2h-8h-6l-2 2h-40q-8 -2 -12 -2h-7t-7 -1 t-7 -2t-6 -1t-8 -1t-8 -2t-7 -2t-7 -2t-7 -4t-8 -4t-7 -2t-7 -3l-8 -4t-7 -4t-7 -5t-7 -5t-7 -5t-8 -5t-7 -6t-7 -7t-7 -6t-8 -7t-8 -8t-9 -10l-44 -76l-16 -40q-2 -6 -3 -10t-1 -12v-6q-2 -8 -3 -11t-1 -7v-8v-44v-2v-16zM234 1154v424h194q8 -2 11 -2t7 -1t8 -1t7 -1t7 -2 t7 -2t8 -2t8 -3l6 -4t7 -3t7 -3t8 -4t8 -4t6 -7t9 -11l12 -18l6 -24l3 -12t1 -7v-5v-18q-2 -8 -3 -11t-2 -7l-2 -8t-2 -7t-4 -8t-5 -8l-4 -6t-6 -8t-10 -11h-2l-24 -18l28 -20l12 -22l8 -24q0 -8 2 -11t4 -7v-8q0 -8 1 -11t2 -8l1 -5v-8q0 -6 1 -11t1 -8t2 -5v-10 q2 -8 2 -11v-8t2 -7v-8l2 -6h-130v2q-2 6 -2 10t-1 8l-2 8t-1 7v7v8t-1 7t-1 8t-1 8t-1 6v8t-1 8t-2 7t-1 8t-3 7t-4 7t-3 8t-5 7l-9 9q-8 6 -12 7t-6 1q-8 6 -12 6v-56v-106h-136zM370 1392h14q8 2 12 2t7 2t7 3t7 5t7 6v2q4 6 4 11v7v2l2 2v24q-2 6 -3 11t-4 8l-5 5h-2 q-6 6 -10 7t-6 1q-8 4 -12 4h-7h-5h-6v-102z" />
<glyph unicode="A" />
<glyph unicode="B" horiz-adv-x="2700" d="M0 -288v2040h622v-474h1256q34 -14 51 -14t34 -3t34 -7t34 -7t33 -10t33 -14t34 -17t34 -17t34 -17t34 -23t34 -30t34 -31t31 -28v-6l122 -196q14 -34 17 -51t11 -51v-8l9 -51t3 -34v-34v-33v-33v-34v-34v-34v-34v-34v-34v-34v-34v-31q-12 -34 -16 -51t-10 -43v-8 q-14 -34 -17 -51t-25 -51l-128 -176h-6l-204 -128h-8q-32 -14 -49 -17t-51 -11h-8l-51 -9t-34 -3h-34h-34h-34h-33h-33h-34h-34h-34h-34h-34h-34h-34h-34h-34h-34h-34h-34h-34h-34h-34h-34h-34h-34h-34h-33h-33h-34h-34h-34h-34h-34h-34h-34h-34h-34h-34h-34h-34h-34h-34 h-34h-34h-34h-34h-34h-34h-33h-33h-34h-34h-34h-34h-34h-34h-34h-23zM622 348h1248v306h-1248v-306z" />
<glyph unicode="C" />
<glyph unicode="D" horiz-adv-x="2700" d="M0 357v34v34v34v34v34v34v34v34v51l9 51t3 34t7 34t11 35t10 35t17 34t21 34t17 34t20 34t30 34t31 34t28 31h6l198 122q34 14 51 18t53 10h6q34 6 51 10t45 10h1262v478h636v-2040h-1926l-51 9t-34 7t-34 7t-34 10t-34 10t-34 14t-34 21t-35 20t-35 24t-34 27t-34 27 t-31 28v6l-122 198v8q-14 34 -17 51t-11 51v6q-6 34 -6 51t-3 35t-3 35zM628 352h1248v302h-1248v-302z" />
<glyph unicode="E" />
<glyph unicode="F" />
<glyph unicode="G" />
<glyph unicode="H" />
<glyph unicode="I" />
<glyph unicode="J" />
<glyph unicode="K" />
<glyph unicode="L" />
<glyph unicode="M" />
<glyph unicode="N" />
<glyph unicode="O" />
<glyph unicode="P" />
<glyph unicode="Q" />
<glyph unicode="R" horiz-adv-x="900" d="M12 1319v6v7v52v2v14l3 12t1 7t1 8t1 8t1 6t2 8t1 8t2 7t2 8t2 7t3 7l2 8l2 8t2 7t4 7t5 8t3 7t3 8t4 8l4 6t4 8t4 8t5 7t6 7t6 7l6 8t5 7t5 7t7 8t8 7t7 8t7 8t10 9h2l100 66l40 14q6 4 11 4t9 2h2q6 2 10 3t7 1t9 2h8q6 2 9 2h7h8t8 4h48v-4h18q6 0 10 -1t8 -1t6 -2h6 q6 0 10 -2t12 -4h4l9 -3t7 -1h2l56 -26h2l106 -90l64 -102l16 -44q4 -6 4 -10t2 -8v-4q2 -8 2 -11t1 -6l3 -9v-6q0 -8 1 -12t1 -7v-7t4 -8v-50l-4 -2v-14q-2 -10 -2 -13v-7t-1 -8t-2 -7t-1 -7t-1 -8l-2 -8t-2 -7t-2 -7l-2 -8t-3 -7t-3 -7l-2 -8t-4 -7t-4 -8t-2 -8t-3 -6 t-4 -8t-4 -8t-4 -7t-4 -7t-4 -7t-6 -8t-6 -7t-4 -8t-5 -8l-6 -6t-7 -8t-7 -8t-6 -7t-7 -8l-7 -7l-7 -7t-6 -4h-2l-84 -60l-54 -20q-6 -4 -11 -4t-11 -2h-2q-6 -2 -10 -3t-8 -1h-8q-8 -2 -11 -3t-6 -1h-7h-6h-48h-2h-18l-9 3t-7 1h-8h-6q-6 2 -10 3t-7 2t-5 1h-4q-8 4 -11 4 t-7 2h-2l-68 34h-2l-88 70l-76 116l-14 42q-2 6 -3 10t-1 8v4q-2 6 -3 10t-1 8t-2 6v8q-2 6 -3 11t-1 8zM116 1320q2 -6 3 -10t1 -12v-4l3 -12t3 -8v-4l28 -62l58 -72l78 -52l28 -10q8 -4 12 -4t12 -2h4q6 -2 9 -2h8h7h2l2 -2h38q6 2 11 2h8t6 1t7 2t8 1t8 1t7 2l6 2t7 2 t8 4t8 4t7 3t6 3t8 4t8 5t7 5t7 5l6 4t8 5t8 7t7 7t7 7t11 8v4l54 82l14 40q4 8 4 12v6q2 8 3 11t1 7v10h2v16l2 2v40l-2 4v12q-2 8 -2 12t-2 12v4q-2 8 -3 11l-3 9v2l-24 58l-58 74l-78 54l-30 10q-6 4 -10 4t-10 2h-6q-6 2 -10 2h-8h-6l-2 2h-40q-8 -2 -12 -2h-7t-7 -1 t-7 -2t-6 -1t-8 -1t-8 -2t-7 -2t-7 -2t-7 -4t-8 -4t-7 -2t-7 -3l-8 -4t-7 -4t-7 -5t-7 -5t-7 -5t-8 -5t-7 -6t-7 -7t-7 -6t-8 -7t-8 -8t-9 -10l-44 -76l-16 -40q-2 -6 -3 -10t-1 -12v-6q-2 -8 -3 -11t-1 -7v-8v-44v-2v-16zM234 1154v424h194q8 -2 11 -2t7 -1t8 -1t7 -1t7 -2 t7 -2t8 -2t8 -3l6 -4t7 -3t7 -3t8 -4t8 -4t6 -7t9 -11l12 -18l6 -24l3 -12t1 -7v-5v-18q-2 -8 -3 -11t-2 -7l-2 -8t-2 -7t-4 -8t-5 -8l-4 -6t-6 -8t-10 -11h-2l-24 -18l28 -20l12 -22l8 -24q0 -8 2 -11t4 -7v-8q0 -8 1 -11t2 -8l1 -5v-8q0 -6 1 -11t1 -8t2 -5v-10 q2 -8 2 -11v-8t2 -7v-8l2 -6h-130v2q-2 6 -2 10t-1 8l-2 8t-1 7v7v8t-1 7t-1 8t-1 8t-1 6v8t-1 8t-2 7t-1 8t-3 7t-4 7t-3 8t-5 7l-9 9q-8 6 -12 7t-6 1q-8 6 -12 6v-56v-106h-136zM370 1392h14q8 2 12 2t7 2t7 3t7 5t7 6v2q4 6 4 11v7v2l2 2v24q-2 6 -3 11t-4 8l-5 5h-2 q-6 6 -10 7t-6 1q-8 4 -12 4h-7h-5h-6v-102z" />
<glyph unicode="S" />
<glyph unicode="T" />
<glyph unicode="U" />
<glyph unicode="V" />
<glyph unicode="W" />
<glyph unicode="X" />
<glyph unicode="Y" />
<glyph unicode="Z" />
<glyph unicode="[" />
<glyph unicode="\" />
<glyph unicode="]" />
<glyph unicode="^" />
<glyph unicode="_" />
<glyph unicode="`" />
<glyph unicode="a" horiz-adv-x="2700" d="M0 342q14 38 14 58t4 39l8 38t12 38t11 39t15 39t20 38t19 38t27 39t31 39t45 49h8l208 132h8q38 14 58 18t58 12h46l8 8h1294v308h-1888v478h1940q40 -8 59 -12l38 -8t38 -12t39 -15t39 -19t38 -20t38 -23t39 -30t39 -31t38 -35l27 -27v-8l108 -184q16 -38 22 -54v-100 l8 -8v-1454h-1908q-40 6 -59 10l-38 8l-38 8t-39 12t-39 15t-38 19t-38 20t-39 23t-39 30t-38 31t-35 30v8l-116 186l-38 130q-8 38 -11 58t-3 42zM630 196h1264v300h-1264v-300z" />
<glyph unicode="b" horiz-adv-x="2700" d="M0 -288v2042h1910q24 -4 35 -4t23 -3t24 -5l24 -4t24 -5t24 -7t24 -9t23 -10t23 -10t24 -12l24 -14l24 -14l24 -14t24 -17t23 -19t23 -19t32 -28v-4l122 -190l24 -62q10 -24 12 -36t2 -30q6 -24 8 -36t2 -30v-10l10 -34h4v-28l-4 -4v-52q-6 -24 -8 -36l-4 -24t-7 -24 t-7 -24t-7 -24t-12 -23t-14 -23t-12 -24t-12 -24t-17 -24t-19 -24t-16 -23t-13 -17l110 -190q10 -24 12 -35t6 -31v-10q6 -22 8 -34t2 -24v-26v-6l10 -28h4v-28q-4 -24 -4 -36t-3 -24t-5 -23t-4 -23t-5 -24t-7 -24t-9 -24l-10 -24l-10 -24t-12 -23t-14 -23t-12 -24t-14 -24 t-19 -24t-19 -24t-19 -24t-21 -23l-17 -17h-4l-214 -132q-24 -14 -35 -17t-21 -3q-24 -8 -36 -8t-24 -3t-16 -3q-24 -4 -36 -4t-24 -2t-24 -2h-23h-23h-24h-24h-24h-24h-24h-23h-23h-24h-24h-24h-24h-23h-23h-24h-24h-24h-24h-24h-23h-23h-24h-24h-24h-24h-24h-23h-23h-24 h-24h-24h-24h-24h-23h-23h-24h-24h-24h-24h-23h-23h-24h-24h-24h-24h-24h-23h-23h-24h-24h-24h-24h-24h-23h-23h-24h-24h-24h-24h-24h-23h-23h-24h-24h-24h-24h-23h-23h-24h-24h-24h-24h-24h-23h-23h-24h-24h-30zM624 190l6 -4l1246 4v304h-1252v-304zM624 976h1252v304 h-1252v-304z" />
<glyph unicode="c" horiz-adv-x="2700" d="M0 337v35v35v34v35v35v35v35v35v35v35v35v35v35v35v35v35v35v35v35v35v35v34v53q6 34 9 52t7 35t7 35t10 35t14 35t14 35t18 35t21 35t24 35t28 35t42 45h8l202 134h8q34 14 52 17t52 11h8q34 6 52 10t38 10h1894v-622h-1886v-782h1886v-636h-1956q-36 12 -53 16t-45 10 h-8q-34 14 -52 21t-35 18t-35 21t-35 21t-35 25t-35 28t-45 42v6l-134 210v8q-14 34 -17 52t-11 52v8q-6 34 -9 52t-3 35z" />
<glyph unicode="d" horiz-adv-x="2700" d="M0 -288v2042h1940q24 -6 37 -8t26 -2t26 -5t26 -8t26 -5t25 -8t25 -11l26 -10t26 -13t26 -15t26 -18t25 -21t25 -23t26 -23t33 -30v-6l124 -204l20 -62q10 -26 10 -39t6 -29v-56l4 -4v-842q-4 -26 -7 -39t-3 -26t-2 -26t-7 -25t-8 -25t-8 -26l-10 -26l-10 -26l-10 -26 t-13 -25t-16 -25t-18 -26l-20 -26t-23 -26t-23 -26t-22 -23h-4l-200 -132l-78 -26h-10q-26 -6 -39 -8t-27 -8h-36l-6 -4h-1908zM626 342l4 -4l1248 4v780h-1252v-780z" />
<glyph unicode="e" horiz-adv-x="2700" d="M0 364v782q6 34 6 51t3 34t10 33t14 33t10 34t13 34l20 34t17 34t21 33t27 33l26 34t47 51h8l194 122l116 32h6q34 8 51 11t34 3h33h33h34h34h34h34h33h33h34h34h34h34h33h33h34h34h34h34h34h33h33h34h34h34h34h33h33h34h34h34h34h33h33h34h34h34h34h37q34 -6 50 -6 t33 -4t34 -7t34 -10t34 -10t34 -13t34 -17t33 -17t33 -23t34 -24t34 -24t43 -41v-6l128 -202v-6q14 -34 17 -51t11 -51v-6q6 -34 6 -51t4 -34t4 -34v-33v-33v-34v-34v-34v-34v-33v-33v-34v-34v-34v-34v-34v-33v-33v-34v-34v-51h-1880v-310h1880v-470h-1928q-34 6 -50 6 t-33 7t-34 10t-34 10t-34 13t-34 13t-34 17t-33 20t-33 24t-34 27t-34 27t-34 31l-23 23v6l-94 162l-34 102v148zM626 978h1252v302h-1252v-302z" />
<glyph unicode="f" horiz-adv-x="2700" d="M0 -288v1588q6 32 9 49t10 33t13 32t16 33t20 33t20 33t26 33l30 30h6l190 118q34 20 50 23t30 3q32 12 48 16t44 4h6q32 6 49 6t33 3t32 3h33h33h33h33h32h33h33h33h33h33h33h32h33h33h33h33h32h33h33h33h33h32h33h33h33h33h33h33h32h33h33h33h33h32h33h33h33h33h32h33 h33h33h33h32h33h33h33h33h33h33h32h33h33h33h33h32h36v-472h-1884v-308h1884v-480h-1884v-780h-622z" />
<glyph unicode="g" horiz-adv-x="2700" d="M0 164v1130q6 30 9 46t6 31t9 30t15 31t18 31l18 30t22 30t31 35h6l262 158h6q32 6 47 12t30 9t21 3h36q32 6 47 6t30 3t31 3h31h30h30h31h31h30h31h31h30h30h31h31h30h31h31h30h30h31h31h30h31h31h30h30h31h31h30h31h31h30h30h31h31h30h31h31h30h30h31h31h30h31h31h30 h30h31h31h30h31h31h30h30h31h31h30h31h31h30h30h31h28v-476h-1872v-1088h1248v306h-942v476h942v-6q30 -6 46 -9t28 -3h18l45 -9t31 -6t31 -6l30 -6t31 -9t31 -16t30 -16t30 -15t31 -18t31 -18t30 -21t31 -28t31 -28t21 -18v-6l66 -110q20 -30 23 -46t3 -31t6 -33v-348 q-6 -32 -9 -47t-9 -30t-13 -30t-13 -31t-18 -31l-24 -30t-24 -31t-38 -40h-6l-238 -140h-6q-30 -6 -45 -12t-31 -9t-22 -3h-36q-30 -6 -46 -6t-46 -12h-1088l-6 6h-184q-30 6 -45 6t-31 3t-31 6l-30 6t-31 6t-31 6t-30 9t-30 15t-31 15t-31 15t-30 19t-31 16t-31 18l-30 24 t-30 27l-35 35v6l-66 110q-18 30 -21 45t-3 31t-6 28z" />
<glyph unicode="h" horiz-adv-x="2700" d="M0 -288v2040h622v-476h1266q30 -6 46 -9t28 -3h18q30 -6 45 -12t31 -9t31 -9t30 -13t31 -16t31 -15t30 -15t30 -21t31 -28t31 -28t39 -36v-6l122 -196l38 -110v-18l6 -6v-1014h-624v940h-1260v-940h-622z" />
<glyph unicode="i" horiz-adv-x="820" d="M0 -288v2040h626v-2040h-626z" />
<glyph unicode="j" horiz-adv-x="2700" d="M0 320v498h624v-470h1268v1406h626v-1446l-6 -6v-58l-9 -42t-9 -29t-11 -29t-11 -28t-12 -29t-14 -29t-20 -28t-21 -29t-20 -29t-22 -29t-23 -29t-30 -30h-4l-224 -132q-30 -12 -44 -18t-32 -6l-42 -9t-29 -3h-19h-6l-6 -4h-1296q-30 4 -44 4t-28 3t-29 6t-29 6t-29 9 t-29 11t-28 14t-29 15t-29 14t-28 14t-29 20t-29 26t-28 23t-29 26t-19 21v4l-132 208l-18 42t-6 32q-6 28 -9 43t-3 29v20v12z" />
<glyph unicode="k" horiz-adv-x="2700" d="M0 -288v2042h624v-782h1250v782h624v-810q-6 -30 -9 -44t-8 -29t-11 -29t-12 -29t-18 -29t-20 -29t-14 -19l74 -134v-6q12 -28 12 -43t3 -29t3 -26l-6 -6v-780h-618v780h-1250v-780h-624z" />
<glyph unicode="l" horiz-adv-x="2700" d="M0 316v1438h622v-1408h1886v-634h-1914l-6 4h-56l-42 9t-28 9t-28 11t-28 11t-28 11t-28 14t-28 17t-28 17t-28 20l-28 22l-28 22t-38 33v6l-134 220q-10 28 -16 42t-6 30l-9 42t-3 28v20v12z" />
<glyph unicode="m" horiz-adv-x="3640" d="M0 -288v2042h2846l4 -6h56q28 -6 41 -9t27 -5t28 -8t28 -11t28 -14t27 -17t27 -16t28 -14t28 -17t27 -22t27 -24t42 -35v-6l132 -214q10 -28 16 -42t12 -36v-28l4 -6v-54q6 -28 18 -44v-1414h-628v1414h-782v-1414h-628v1414h-782v-1414h-626z" />
<glyph unicode="n" horiz-adv-x="2700" d="M0 -288v2040h1918q30 -6 45 -6t31 -3t31 -9t31 -9t31 -9t31 -12t31 -16t31 -19t31 -18t31 -22t31 -25t31 -24t28 -26v-6l124 -204q12 -30 15 -46t15 -46v-12l12 -32v-74l6 -6v-1416h-630v1416h-1250v-1416h-624z" />
<glyph unicode="o" horiz-adv-x="2700" d="M0 328v32v32v32v32v32v32v32v32v32v32v32v32v32v32v32v32v32v32v32v32v32v32v32v32v32v24l9 48t3 32t6 32t10 32t10 32l12 32t16 32l20 32t19 32t22 32l26 32l26 32t25 28h6l192 122l110 32h6l48 9l48 9h1286q32 -6 48 -6t32 -3t32 -9t32 -10t32 -10l32 -12t32 -16 t32 -16t32 -16t32 -23l32 -26t32 -25t28 -26v-6l128 -204l40 -116v-12l6 -8v-76l-6 -6v-858q-8 -32 -14 -48t-9 -32t-10 -32t-13 -32l-12 -32t-16 -32t-16 -32t-19 -32l-26 -32l-26 -32t-45 -48h-6l-204 -128l-116 -38h-12l-8 -6h-1350q-32 6 -48 6t-32 3t-32 9t-32 10 t-32 10l-32 12t-32 16l-32 20t-32 19t-32 22t-32 29t-32 29t-22 19v6l-128 212l-32 108v6l-9 48t-3 32zM620 352h1248v774h-1248v-774z" />
<glyph unicode="p" horiz-adv-x="2700" d="M0 -288v2040h1916q34 -6 51 -10t35 -7t35 -7t34 -11t34 -10t35 -13t35 -17t34 -18t34 -24t35 -27t35 -28t31 -28v-6l124 -200l34 -104l14 -34v-422q-6 -34 -10 -51t-7 -34t-7 -35t-11 -35t-10 -34t-14 -34t-21 -35t-20 -35t-24 -34l-28 -34t-28 -35t-20 -24h-6l-208 -130 h-6q-36 -14 -53 -18t-34 -11t-25 -7h-12l-8 -6h-68l-8 -8h-1262v-474h-626zM626 814h1262v310h-1262v-310z" />
<glyph unicode="q" horiz-adv-x="2700" d="M0 355v31v32v31v31v31v31v31v31v31v31v32v31v31v31v31v31v31v32v31v31v31v31v31v31v31v23q6 30 6 46t3 31t9 31t9 31t9 31t13 32t16 31t15 31t15 31t22 31t28 31t28 31t31 34h6l194 124q30 14 46 17t46 15h26q32 6 47 9t47 9h1294q32 -6 47 -6t31 -3t31 -9t31 -9t31 -9 t31 -13t32 -16t31 -15t31 -16t31 -22t31 -24t31 -22t41 -34v-6l130 -206l32 -106v-6q6 -32 6 -47t3 -31t3 -31v-31v-31v-31v-32v-31v-31v-31v-31v-31v-31v-31v-31v-32v-31v-31v-31v-31v-31v-31v-32v-31v-31v-31v-53h136l20 -6l-6 -6v-628h-2062q-30 6 -46 6t-31 3t-31 6 t-31 9t-31 12t-32 9t-31 13t-31 19t-31 18t-31 22t-31 25t-31 25t-40 37v6l-132 206q-12 32 -15 47t-15 47v24q-6 32 -6 47t-3 31t-3 31zM628 352h1250v778h-1250v-778z" />
<glyph unicode="r" horiz-adv-x="2700" d="M0 -288v2040h1920q34 -8 52 -11t36 -3t36 -7t35 -11t35 -11l36 -14t35 -18t35 -21t36 -24t36 -32t35 -32t31 -28v-8l128 -198v-8q14 -34 18 -52t10 -54v-6q8 -36 11 -54t3 -46q-6 -36 -10 -53t-4 -35v-26q-14 -34 -17 -52t-11 -40l-84 -142l98 -156v-6q14 -36 14 -53 t8 -25v-814h-630v786h-1262v-786h-630zM630 972h1262v312h-1262v-312z" />
<glyph unicode="s" horiz-adv-x="2700" d="M0 178h1878v320h-1282l-4 6h-56q-26 6 -40 8t-27 5t-27 6t-28 8t-27 8t-27 9t-27 11t-27 10t-27 14t-27 17l-28 16t-27 19t-27 24t-27 24t-41 39v4l-70 110l-22 64q-6 28 -8 42t-2 27v19v320q4 28 7 41t8 27t11 27t11 27t13 28t19 27t22 27t22 27t39 41h4l158 102l86 34 q28 10 42 13t36 9h10q28 4 41 7t27 3h30h6l4 6h1918v-468h-1890v-320h1282l6 -6h54q26 -4 40 -7l28 -6t27 -6t27 -5t27 -8t27 -11t27 -11t27 -11t28 -13t27 -16t27 -17t27 -17t27 -19t27 -24t27 -24t30 -27v-6l72 -120q10 -26 13 -40t7 -36v-10l6 -6v-364q-6 -26 -8 -40 t-8 -28t-11 -27t-11 -27t-14 -27t-16 -27t-19 -27t-24 -27t-19 -20h-6l-200 -130l-72 -26q-26 -12 -40 -15t-40 -7h-12q-26 -6 -40 -9t-28 -3h-30h-4l-6 -4h-1906v466z" />
<glyph unicode="t" horiz-adv-x="2700" d="M0 1124v630h2518v-630h-946v-1412h-626v1412h-946z" />
<glyph unicode="u" horiz-adv-x="2700" d="M4 321v29v29v29v29v29v29v29v29v29v29v29v28v29v29v29v29v29v29v29v29v29v29v29v29v28v29v29v29v29v29v29v29v29v29v29v29v29v29v29v28v29v29v29v29v29v29v29v29v44h632v-1412h1260v1412h632v-2042h-1928q-28 4 -43 4t-29 3t-29 6t-29 9t-28 9t-29 9t-29 11t-29 14 t-29 15t-29 15t-29 20t-29 23t-29 23t-38 35v6l-126 202l-30 86v18q-6 30 -6 44t-3 28t-3 29z" />
<glyph unicode="v" horiz-adv-x="2700" d="M0 -288v2042h626v-1416h1254v1416h626v-390l4 -4v-992l-4 -6v-78q-4 -26 -7 -38t-3 -24t-2 -25t-7 -25t-8 -24t-8 -25t-10 -25l-10 -24t-10 -25t-12 -25t-17 -24t-17 -25t-20 -25t-22 -24t-19 -25t-20 -23h-6l-186 -118l-60 -20q-24 -10 -37 -12t-37 -8h-20 q-24 -4 -37 -6t-25 -2h-24h-25h-25h-24h-25h-25h-24h-25h-25h-24h-25h-25h-24h-25h-25h-24h-25h-25h-24h-25h-25h-24h-25h-25h-24h-25h-25h-24h-25h-25h-24h-25h-25h-24h-25h-25h-24h-25h-25h-24h-25h-25h-24h-25h-25h-25h-25h-24h-25h-25h-24h-25h-25h-24h-25h-25h-24h-25 h-25h-24h-25h-25h-24h-25h-25h-24h-25h-25h-24h-25h-25h-24h-25h-25h-24h-25h-31z" />
<glyph unicode="w" horiz-adv-x="3660" d="M0 -288v2042h624v-1418h792v1418h632v-1418h790v1418h626v-1438q-6 -26 -8 -39t-5 -26t-5 -26t-5 -26t-5 -26t-8 -25t-11 -25l-10 -26t-13 -26l-16 -26t-15 -26t-18 -26t-21 -26t-23 -26t-23 -26t-26 -29h-6l-196 -128q-26 -10 -39 -16t-27 -6q-26 -10 -39 -12t-39 -2 q-26 -6 -39 -8t-26 -2h-26h-26h-26h-26h-26h-26h-26h-25h-25h-26h-26h-26h-26h-26h-26h-26h-26h-26h-26h-26h-26h-25h-25h-26h-26h-26h-26h-26h-26h-26h-26h-26h-26h-26h-26h-25h-25h-26h-26h-26h-26h-26h-26h-26h-26h-26h-26h-26h-26h-25h-25h-26h-26h-26h-26h-26h-26h-26 h-26h-26h-26h-26h-26h-26h-25h-25h-26h-26h-26h-26h-26h-26h-26h-26h-26h-26h-26h-26h-25h-25h-26h-26h-26h-26h-26h-26h-26h-26h-26h-26h-26h-26h-25h-25h-26h-26h-26h-26h-26h-26h-26h-26h-26h-26h-26h-26h-25h-25h-26h-23z" />
<glyph unicode="x" horiz-adv-x="2700" d="M0 -288v628h628v786h-628v628h656q24 -4 36 -4t24 -3t24 -5l24 -4t24 -7t23 -10t23 -10t24 -9t24 -9t24 -12t24 -15t24 -12t24 -14t24 -22t24 -21t24 -19t26 -24v-4l138 -214q14 -24 16 -36t2 -22q10 -24 12 -36t2 -36l10 -52q6 24 6 36t2 24l4 24t5 24t7 24t7 23t8 23 t12 24t12 24t12 24l14 24l14 24t16 24t19 24l20 24t19 23t29 31h4l220 138q22 10 34 15t26 5l36 6t26 8h38l6 4h656v-628h-628v-786h628v-628h-656l-36 6t-24 2t-24 3t-24 7t-24 7t-23 8t-23 9t-24 9l-24 10t-24 12l-24 14l-24 14t-24 17t-24 22t-24 21t-24 19t-26 24v4 l-124 186l-28 76q-10 24 -10 36t-2 24t-2 16l-10 54q-4 -24 -4 -36t-3 -24t-5 -24l-4 -24t-5 -24t-7 -24t-9 -24l-10 -24t-12 -24t-12 -23t-14 -23t-17 -24t-17 -24t-19 -24t-19 -24t-19 -24t-28 -30h-6l-156 -110l-96 -38q-24 -10 -36 -12t-36 -8h-18l-36 -6t-24 -2h-24 h-24h-23h-23h-24h-24h-24h-24h-24h-24h-24h-24h-24h-23h-23h-24h-24h-24h-24h-24h-24h-24h-24h-24h-23h-23h-26z" />
<glyph unicode="y" horiz-adv-x="2700" d="M0 938v816h624v-788h1266v788h624v-816l-6 -4v-56q-4 -26 -7 -40t-6 -27t-8 -27t-11 -27t-14 -27l-16 -28t-16 -27t-16 -27t-16 -27t-22 -27t-25 -27t-22 -27t-15 -20h-6l-218 -140q-26 -12 -40 -17t-30 -5q-28 -6 -41 -9t-27 -3h-20h-10l-6 -4h-348v-630h-624v630h-348 l-4 4h-56q-26 6 -40 9t-27 5t-27 8t-28 11t-27 11t-27 14t-27 19t-27 19t-27 16t-27 22t-28 24t-27 21t-29 29v4l-130 206q-12 28 -17 42t-5 30q-6 26 -9 40t-3 27v19v12z" />
<glyph unicode="z" horiz-adv-x="2700" d="M0 -288v806l9 48t9 32t13 32t13 32t19 32l26 32t29 32l34 34h8l166 104l82 32q32 12 48 15l48 9h32q32 8 48 8t32 3t32 3h32h32h32h32h32h32h32h32h32h32h32h32h32h32h32h32h32h32h32h32h32h32h32h32h32h32h32h32h32h32h32h32h32h32h32h32h32t48 6v314h-1880v466h2514 v-806l-9 -48t-10 -32t-13 -32l-12 -32t-19 -32l-26 -32t-29 -32l-28 -28h-8l-184 -116q-32 -18 -48 -22t-42 -10q-32 -6 -48 -12t-48 -6h-6q-32 -8 -48 -8t-32 -3t-32 -3h-32h-32h-32h-32h-32h-32h-32h-32h-32h-32h-32h-32h-32h-32h-32h-32h-32h-32h-32h-32h-32h-32h-32h-32 h-32h-32h-32h-32h-32h-32h-32h-32h-32h-32h-32h-32h-32h-32t-30 -6v-314h1888v-466h-2514z" />
<glyph unicode="{" />
<glyph unicode="|" />
<glyph unicode="}" />
<glyph unicode="~" />
<glyph unicode="&#xa0;" />
<glyph unicode="&#xa1;" />
<glyph unicode="&#xa2;" />
<glyph unicode="&#xa3;" />
<glyph unicode="&#xa4;" />
<glyph unicode="&#xa5;" />
<glyph unicode="&#xa6;" />
<glyph unicode="&#xa7;" />
<glyph unicode="&#xa8;" />
<glyph unicode="&#xa9;" />
<glyph unicode="&#xaa;" />
<glyph unicode="&#xab;" />
<glyph unicode="&#xac;" />
<glyph unicode="&#xad;" />
<glyph unicode="&#xae;" horiz-adv-x="900" d="M12 1319v6v7v52v2v14l3 12t1 7t1 8t1 8t1 6t2 8t1 8t2 7t2 8t2 7t3 7l2 8l2 8t2 7t4 7t5 8t3 7t3 8t4 8l4 6t4 8t4 8t5 7t6 7t6 7l6 8t5 7t5 7t7 8t8 7t7 8t7 8t10 9h2l100 66l40 14q6 4 11 4t9 2h2q6 2 10 3t7 1t9 2h8q6 2 9 2h7h8t8 4h48v-4h18q6 0 10 -1t8 -1t6 -2h6 q6 0 10 -2t12 -4h4l9 -3t7 -1h2l56 -26h2l106 -90l64 -102l16 -44q4 -6 4 -10t2 -8v-4q2 -8 2 -11t1 -6l3 -9v-6q0 -8 1 -12t1 -7v-7t4 -8v-50l-4 -2v-14q-2 -10 -2 -13v-7t-1 -8t-2 -7t-1 -7t-1 -8l-2 -8t-2 -7t-2 -7l-2 -8t-3 -7t-3 -7l-2 -8t-4 -7t-4 -8t-2 -8t-3 -6 t-4 -8t-4 -8t-4 -7t-4 -7t-4 -7t-6 -8t-6 -7t-4 -8t-5 -8l-6 -6t-7 -8t-7 -8t-6 -7t-7 -8l-7 -7l-7 -7t-6 -4h-2l-84 -60l-54 -20q-6 -4 -11 -4t-11 -2h-2q-6 -2 -10 -3t-8 -1h-8q-8 -2 -11 -3t-6 -1h-7h-6h-48h-2h-18l-9 3t-7 1h-8h-6q-6 2 -10 3t-7 2t-5 1h-4q-8 4 -11 4 t-7 2h-2l-68 34h-2l-88 70l-76 116l-14 42q-2 6 -3 10t-1 8v4q-2 6 -3 10t-1 8t-2 6v8q-2 6 -3 11t-1 8zM116 1320q2 -6 3 -10t1 -12v-4l3 -12t3 -8v-4l28 -62l58 -72l78 -52l28 -10q8 -4 12 -4t12 -2h4q6 -2 9 -2h8h7h2l2 -2h38q6 2 11 2h8t6 1t7 2t8 1t8 1t7 2l6 2t7 2 t8 4t8 4t7 3t6 3t8 4t8 5t7 5t7 5l6 4t8 5t8 7t7 7t7 7t11 8v4l54 82l14 40q4 8 4 12v6q2 8 3 11t1 7v10h2v16l2 2v40l-2 4v12q-2 8 -2 12t-2 12v4q-2 8 -3 11l-3 9v2l-24 58l-58 74l-78 54l-30 10q-6 4 -10 4t-10 2h-6q-6 2 -10 2h-8h-6l-2 2h-40q-8 -2 -12 -2h-7t-7 -1 t-7 -2t-6 -1t-8 -1t-8 -2t-7 -2t-7 -2t-7 -4t-8 -4t-7 -2t-7 -3l-8 -4t-7 -4t-7 -5t-7 -5t-7 -5t-8 -5t-7 -6t-7 -7t-7 -6t-8 -7t-8 -8t-9 -10l-44 -76l-16 -40q-2 -6 -3 -10t-1 -12v-6q-2 -8 -3 -11t-1 -7v-8v-44v-2v-16zM234 1154v424h194q8 -2 11 -2t7 -1t8 -1t7 -1t7 -2 t7 -2t8 -2t8 -3l6 -4t7 -3t7 -3t8 -4t8 -4t6 -7t9 -11l12 -18l6 -24l3 -12t1 -7v-5v-18q-2 -8 -3 -11t-2 -7l-2 -8t-2 -7t-4 -8t-5 -8l-4 -6t-6 -8t-10 -11h-2l-24 -18l28 -20l12 -22l8 -24q0 -8 2 -11t4 -7v-8q0 -8 1 -11t2 -8l1 -5v-8q0 -6 1 -11t1 -8t2 -5v-10 q2 -8 2 -11v-8t2 -7v-8l2 -6h-130v2q-2 6 -2 10t-1 8l-2 8t-1 7v7v8t-1 7t-1 8t-1 8t-1 6v8t-1 8t-2 7t-1 8t-3 7t-4 7t-3 8t-5 7l-9 9q-8 6 -12 7t-6 1q-8 6 -12 6v-56v-106h-136zM370 1392h14q8 2 12 2t7 2t7 3t7 5t7 6v2q4 6 4 11v7v2l2 2v24q-2 6 -3 11t-4 8l-5 5h-2 q-6 6 -10 7t-6 1q-8 4 -12 4h-7h-5h-6v-102z" />
<glyph unicode="&#xaf;" />
<glyph unicode="&#xb0;" />
<glyph unicode="&#xb1;" />
<glyph unicode="&#xb2;" />
<glyph unicode="&#xb3;" />
<glyph unicode="&#xb4;" />
<glyph unicode="&#xb5;" />
<glyph unicode="&#xb6;" />
<glyph unicode="&#xb7;" />
<glyph unicode="&#xb8;" />
<glyph unicode="&#xb9;" />
<glyph unicode="&#xba;" />
<glyph unicode="&#xbb;" />
<glyph unicode="&#xbc;" />
<glyph unicode="&#xbd;" />
<glyph unicode="&#xbe;" />
<glyph unicode="&#xbf;" />
<glyph unicode="&#xc0;" />
<glyph unicode="&#xc1;" />
<glyph unicode="&#xc2;" />
<glyph unicode="&#xc3;" />
<glyph unicode="&#xc4;" />
<glyph unicode="&#xc5;" />
<glyph unicode="&#xc6;" />
<glyph unicode="&#xc7;" />
<glyph unicode="&#xc8;" />
<glyph unicode="&#xc9;" />
<glyph unicode="&#xca;" />
<glyph unicode="&#xcb;" />
<glyph unicode="&#xcc;" />
<glyph unicode="&#xcd;" />
<glyph unicode="&#xce;" />
<glyph unicode="&#xcf;" />
<glyph unicode="&#xd0;" />
<glyph unicode="&#xd1;" />
<glyph unicode="&#xd2;" />
<glyph unicode="&#xd3;" />
<glyph unicode="&#xd4;" />
<glyph unicode="&#xd5;" />
<glyph unicode="&#xd6;" />
<glyph unicode="&#xd7;" />
<glyph unicode="&#xd8;" />
<glyph unicode="&#xd9;" />
<glyph unicode="&#xda;" />
<glyph unicode="&#xdb;" />
<glyph unicode="&#xdc;" />
<glyph unicode="&#xdd;" />
<glyph unicode="&#xde;" />
<glyph unicode="&#xdf;" />
<glyph unicode="&#xe0;" />
<glyph unicode="&#xe1;" />
<glyph unicode="&#xe2;" />
<glyph unicode="&#xe3;" />
<glyph unicode="&#xe4;" />
<glyph unicode="&#xe5;" />
<glyph unicode="&#xe6;" />
<glyph unicode="&#xe7;" />
<glyph unicode="&#xe8;" />
<glyph unicode="&#xe9;" />
<glyph unicode="&#xea;" />
<glyph unicode="&#xeb;" />
<glyph unicode="&#xec;" />
<glyph unicode="&#xed;" />
<glyph unicode="&#xee;" />
<glyph unicode="&#xef;" />
<glyph unicode="&#xf0;" />
<glyph unicode="&#xf1;" />
<glyph unicode="&#xf2;" />
<glyph unicode="&#xf3;" />
<glyph unicode="&#xf4;" />
<glyph unicode="&#xf5;" />
<glyph unicode="&#xf6;" />
<glyph unicode="&#xf7;" />
<glyph unicode="&#xf8;" />
<glyph unicode="&#xf9;" />
<glyph unicode="&#xfa;" />
<glyph unicode="&#xfb;" />
<glyph unicode="&#xfc;" />
<glyph unicode="&#xfd;" />
<glyph unicode="&#xfe;" />
<glyph unicode="&#xff;" />
<glyph unicode="&#x152;" />
<glyph unicode="&#x153;" />
<glyph unicode="&#x178;" />
<glyph unicode="&#x2c6;" />
<glyph unicode="&#x2dc;" />
<glyph unicode="&#x2000;" horiz-adv-x="878" />
<glyph unicode="&#x2001;" horiz-adv-x="1756" />
<glyph unicode="&#x2002;" horiz-adv-x="878" />
<glyph unicode="&#x2003;" horiz-adv-x="1756" />
<glyph unicode="&#x2004;" horiz-adv-x="585" />
<glyph unicode="&#x2005;" horiz-adv-x="439" />
<glyph unicode="&#x2006;" horiz-adv-x="292" />
<glyph unicode="&#x2007;" horiz-adv-x="292" />
<glyph unicode="&#x2008;" horiz-adv-x="219" />
<glyph unicode="&#x2009;" horiz-adv-x="351" />
<glyph unicode="&#x200a;" horiz-adv-x="97" />
<glyph unicode="&#x2010;" horiz-adv-x="6022" d="M-40 160l940 920l-460 480l240 160h5160l160 -160l-380 -320l380 -440l-480 -460h-1600l-146 -106h-1246l-120 120h-1886l-382 -374zM642 474l838 6l-396 436zM740 1620l344 -384l336 384h-680zM1244 1076l476 -476l-160 -120h520l-514 556l482 522l-82 80h-400l114 -98z M1900 980l348 -426l-88 -74h360l160 -140h920l220 140h140l-500 440v-420h-240v940l-340 -940h-240l-160 480h-580zM1966 1156l454 4l-140 400l140 60h-340l160 -140zM2500 1600l260 -860l220 860h-480zM3040 1600l180 -40v40h-180zM3460 1060l520 560h-520v-560zM3774 1036 l246 -236l236 236l-256 244zM4020 1620l480 -540v480h220v-600l220 -200l180 200v600h220v-280l360 340h-1680zM4060 480h820l-400 380zM5020 480h300l360 320l-340 400v-360z" />
<glyph unicode="&#x2011;" horiz-adv-x="6022" d="M-40 160l940 920l-460 480l240 160h5160l160 -160l-380 -320l380 -440l-480 -460h-1600l-146 -106h-1246l-120 120h-1886l-382 -374zM642 474l838 6l-396 436zM740 1620l344 -384l336 384h-680zM1244 1076l476 -476l-160 -120h520l-514 556l482 522l-82 80h-400l114 -98z M1900 980l348 -426l-88 -74h360l160 -140h920l220 140h140l-500 440v-420h-240v940l-340 -940h-240l-160 480h-580zM1966 1156l454 4l-140 400l140 60h-340l160 -140zM2500 1600l260 -860l220 860h-480zM3040 1600l180 -40v40h-180zM3460 1060l520 560h-520v-560zM3774 1036 l246 -236l236 236l-256 244zM4020 1620l480 -540v480h220v-600l220 -200l180 200v600h220v-280l360 340h-1680zM4060 480h820l-400 380zM5020 480h300l360 320l-340 400v-360z" />
<glyph unicode="&#x2012;" horiz-adv-x="6022" d="M-40 160l940 920l-460 480l240 160h5160l160 -160l-380 -320l380 -440l-480 -460h-1600l-146 -106h-1246l-120 120h-1886l-382 -374zM642 474l838 6l-396 436zM740 1620l344 -384l336 384h-680zM1244 1076l476 -476l-160 -120h520l-514 556l482 522l-82 80h-400l114 -98z M1900 980l348 -426l-88 -74h360l160 -140h920l220 140h140l-500 440v-420h-240v940l-340 -940h-240l-160 480h-580zM1966 1156l454 4l-140 400l140 60h-340l160 -140zM2500 1600l260 -860l220 860h-480zM3040 1600l180 -40v40h-180zM3460 1060l520 560h-520v-560zM3774 1036 l246 -236l236 236l-256 244zM4020 1620l480 -540v480h220v-600l220 -200l180 200v600h220v-280l360 340h-1680zM4060 480h820l-400 380zM5020 480h300l360 320l-340 400v-360z" />
<glyph unicode="&#x2013;" />
<glyph unicode="&#x2014;" />
<glyph unicode="&#x2018;" />
<glyph unicode="&#x2019;" />
<glyph unicode="&#x201a;" />
<glyph unicode="&#x201c;" />
<glyph unicode="&#x201d;" />
<glyph unicode="&#x201e;" />
<glyph unicode="&#x2022;" />
<glyph unicode="&#x2026;" />
<glyph unicode="&#x202f;" horiz-adv-x="351" />
<glyph unicode="&#x2039;" />
<glyph unicode="&#x203a;" />
<glyph unicode="&#x205f;" horiz-adv-x="439" />
<glyph unicode="&#x20ac;" />
<glyph unicode="&#x2122;" />
<glyph unicode="&#x25fc;" horiz-adv-x="1750" d="M0 0v1750h1750v-1750h-1750z" />
</font>
</defs>
</svg>
